{
    "asset" : {
        "generator" : "Khronos glTF Blender I/O v1.3.48",
        "version" : "2.0"
    },
    "scene" : 0,
    "scenes" : [
        {
            "name" : "Scene",
            "nodes" : [
                4,
                5,
                6
            ]
        }
    ],
    "nodes" : [
        {
            "mesh" : 0,
            "name" : "Circle",
            "scale" : [
                0.10467187315225601,
                0.11513906717300415,
                0.11513906717300415
            ],
            "translation" : [
                0,
                0,
                -0.7589332461357117
            ]
        },
        {
            "mesh" : 1,
            "name" : "logo.orbita",
            "rotation" : [
                0,
                0,
                -1,
                -1.6366124100386514e-07
            ],
            "scale" : [
                0.9322720766067505,
                1,
                0.1237562894821167
            ],
            "translation" : [
                0,
                0.0010000169277191162,
                1.0011482238769531
            ]
        },
        {
            "mesh" : 2,
            "name" : "Plane.001",
            "scale" : [
                0.12218831479549408,
                0.09059947729110718,
                0.06747420877218246
            ],
            "translation" : [
                0,
                0.0009999573230743408,
                -1.0149208307266235
            ]
        },
        {
            "mesh" : 3,
            "name" : "tecl.numerico"
        },
        {
            "children" : [
                0,
                1,
                2,
                3
            ],
            "mesh" : 4,
            "name" : "visor.preto",
            "rotation" : [
                0.7071068286895752,
                0,
                0,
                0.7071068286895752
            ],
            "scale" : [
                1.100000023841858,
                1,
                1
            ],
            "translation" : [
                0,
                0,
                0.3009999990463257
            ]
        },
        {
            "mesh" : 5,
            "name" : "base.004"
        },
        {
            "mesh" : 6,
            "name" : "cima"
        }
    ],
    "materials" : [
        {
            "doubleSided" : true,
            "emissiveFactor" : [
                0,
                0,
                0
            ],
            "name" : "Material.001",
            "pbrMetallicRoughness" : {
                "baseColorFactor" : [
                    0.0908379852771759,
                    0.0908379852771759,
                    0.0908379852771759,
                    1
                ],
                "metallicFactor" : 0.6382978558540344,
                "roughnessFactor" : 0.26595744490623474
            }
        },
        {
            "doubleSided" : true,
            "emissiveFactor" : [
                0,
                0,
                0
            ],
            "name" : "visor.preto",
            "pbrMetallicRoughness" : {
                "baseColorFactor" : [
                    0,
                    0,
                    0,
                    1
                ],
                "metallicFactor" : 0,
                "roughnessFactor" : 0.15000000596046448
            }
        },
        {
            "doubleSided" : true,
            "emissiveFactor" : [
                0,
                0,
                0
            ],
            "name" : "Material.002",
            "pbrMetallicRoughness" : {
                "baseColorFactor" : [
                    0.011298923753201962,
                    0.7325693964958191,
                    0.8000000715255737,
                    1
                ],
                "metallicFactor" : 0,
                "roughnessFactor" : 0.5
            }
        },
        {
            "alphaMode" : "BLEND",
            "doubleSided" : true,
            "emissiveFactor" : [
                0,
                0,
                0
            ],
            "name" : "tecl.numerico.001",
            "pbrMetallicRoughness" : {
                "baseColorTexture" : {
                    "index" : 0,
                    "texCoord" : 0
                },
                "metallicFactor" : 0,
                "roughnessFactor" : 0.15000000596046448
            }
        },
        {
            "doubleSided" : true,
            "emissiveFactor" : [
                0,
                0,
                0
            ],
            "name" : "Material.003",
            "pbrMetallicRoughness" : {
                "baseColorFactor" : [
                    0.015995007008314133,
                    0.015995007008314133,
                    0.015995007008314133,
                    1
                ],
                "metallicFactor" : 0,
                "roughnessFactor" : 0.5
            }
        },
        {
            "alphaMode" : "BLEND",
            "doubleSided" : true,
            "emissiveFactor" : [
                0,
                0,
                0
            ],
            "name" : "tecl.numerico",
            "pbrMetallicRoughness" : {
                "baseColorTexture" : {
                    "index" : 1,
                    "texCoord" : 0
                },
                "metallicFactor" : 0,
                "roughnessFactor" : 0.15000000596046448
            }
        },
        {
            "doubleSided" : true,
            "emissiveFactor" : [
                0,
                0,
                0
            ],
            "name" : "corpo.bronze",
            "pbrMetallicRoughness" : {
                "baseColorFactor" : [
                    0.22115501761436462,
                    0.16053739190101624,
                    0.11760292202234268,
                    1
                ],
                "metallicFactor" : 0.5,
                "roughnessFactor" : 0.3330000042915344
            }
        }
    ],
    "meshes" : [
        {
            "name" : "Circle",
            "primitives" : [
                {
                    "attributes" : {
                        "POSITION" : 0,
                        "NORMAL" : 1,
                        "TEXCOORD_0" : 2
                    },
                    "indices" : 3,
                    "material" : 0
                },
                {
                    "attributes" : {
                        "POSITION" : 4,
                        "NORMAL" : 5,
                        "TEXCOORD_0" : 6
                    },
                    "indices" : 7,
                    "material" : 1
                },
                {
                    "attributes" : {
                        "POSITION" : 8,
                        "NORMAL" : 9,
                        "TEXCOORD_0" : 10
                    },
                    "indices" : 11,
                    "material" : 2
                }
            ]
        },
        {
            "name" : "Plane.003",
            "primitives" : [
                {
                    "attributes" : {
                        "POSITION" : 12,
                        "NORMAL" : 13,
                        "TEXCOORD_0" : 14
                    },
                    "indices" : 15,
                    "material" : 3
                }
            ]
        },
        {
            "name" : "Plane.004",
            "primitives" : [
                {
                    "attributes" : {
                        "POSITION" : 16,
                        "NORMAL" : 17,
                        "TEXCOORD_0" : 18
                    },
                    "indices" : 19,
                    "material" : 4
                }
            ]
        },
        {
            "name" : "Plane.002",
            "primitives" : [
                {
                    "attributes" : {
                        "POSITION" : 20,
                        "NORMAL" : 21,
                        "TEXCOORD_0" : 22
                    },
                    "indices" : 15,
                    "material" : 5
                }
            ]
        },
        {
            "name" : "Plane.001",
            "primitives" : [
                {
                    "attributes" : {
                        "POSITION" : 23,
                        "NORMAL" : 24,
                        "TEXCOORD_0" : 25
                    },
                    "indices" : 26,
                    "material" : 1
                }
            ]
        },
        {
            "name" : "Cube.003",
            "primitives" : [
                {
                    "attributes" : {
                        "POSITION" : 27,
                        "NORMAL" : 28,
                        "TEXCOORD_0" : 29
                    },
                    "indices" : 30,
                    "material" : 6
                }
            ]
        },
        {
            "name" : "Cube.004",
            "primitives" : [
                {
                    "attributes" : {
                        "POSITION" : 31,
                        "NORMAL" : 32,
                        "TEXCOORD_0" : 33
                    },
                    "indices" : 34,
                    "material" : 6
                }
            ]
        }
    ],
    "textures" : [
        {
            "source" : 0
        },
        {
            "source" : 1
        }
    ],
    "images" : [
        {
            "bufferView" : 16,
            "mimeType" : "image/png",
            "name" : "orbita_logo_cinza_claro_compr"
        },
        {
            "bufferView" : 24,
            "mimeType" : "image/png",
            "name" : "tecl_p8030"
        }
    ],
    "accessors" : [
        {
            "bufferView" : 0,
            "componentType" : 5126,
            "count" : 128,
            "max" : [
                1,
                0.08088899403810501,
                1
            ],
            "min" : [
                -1,
                0,
                -1
            ],
            "type" : "VEC3"
        },
        {
            "bufferView" : 1,
            "componentType" : 5126,
            "count" : 128,
            "type" : "VEC3"
        },
        {
            "bufferView" : 2,
            "componentType" : 5126,
            "count" : 128,
            "type" : "VEC2"
        },
        {
            "bufferView" : 3,
            "componentType" : 5123,
            "count" : 384,
            "type" : "SCALAR"
        },
        {
            "bufferView" : 4,
            "componentType" : 5126,
            "count" : 32,
            "max" : [
                0.6657489538192749,
                0.08088899403810501,
                0.665748655796051
            ],
            "min" : [
                -0.6657488942146301,
                0.08088899403810501,
                -0.6657492518424988
            ],
            "type" : "VEC3"
        },
        {
            "bufferView" : 5,
            "componentType" : 5126,
            "count" : 32,
            "type" : "VEC3"
        },
        {
            "bufferView" : 6,
            "componentType" : 5126,
            "count" : 32,
            "type" : "VEC2"
        },
        {
            "bufferView" : 7,
            "componentType" : 5123,
            "count" : 90,
            "type" : "SCALAR"
        },
        {
            "bufferView" : 8,
            "componentType" : 5126,
            "count" : 64,
            "max" : [
                0.7815908193588257,
                0.08088899403810501,
                0.7815905213356018
            ],
            "min" : [
                -0.7815908193588257,
                0.08088899403810501,
                -0.7815911173820496
            ],
            "type" : "VEC3"
        },
        {
            "bufferView" : 9,
            "componentType" : 5126,
            "count" : 64,
            "type" : "VEC3"
        },
        {
            "bufferView" : 10,
            "componentType" : 5126,
            "count" : 64,
            "type" : "VEC2"
        },
        {
            "bufferView" : 11,
            "componentType" : 5123,
            "count" : 192,
            "type" : "SCALAR"
        },
        {
            "bufferView" : 12,
            "componentType" : 5126,
            "count" : 36,
            "max" : [
                0.19999998807907104,
                -1.12032760846148e-09,
                0.9928985834121704
            ],
            "min" : [
                -0.19999998807907104,
                -1.12032760846148e-09,
                -1.4071015119552612
            ],
            "type" : "VEC3"
        },
        {
            "bufferView" : 13,
            "componentType" : 5126,
            "count" : 36,
            "type" : "VEC3"
        },
        {
            "bufferView" : 14,
            "componentType" : 5126,
            "count" : 36,
            "type" : "VEC2"
        },
        {
            "bufferView" : 15,
            "componentType" : 5123,
            "count" : 102,
            "type" : "SCALAR"
        },
        {
            "bufferView" : 17,
            "componentType" : 5126,
            "count" : 4,
            "max" : [
                1,
                0,
                1
            ],
            "min" : [
                -1,
                0,
                -1
            ],
            "type" : "VEC3"
        },
        {
            "bufferView" : 18,
            "componentType" : 5126,
            "count" : 4,
            "type" : "VEC3"
        },
        {
            "bufferView" : 19,
            "componentType" : 5126,
            "count" : 4,
            "type" : "VEC2"
        },
        {
            "bufferView" : 20,
            "componentType" : 5123,
            "count" : 6,
            "type" : "SCALAR"
        },
        {
            "bufferView" : 21,
            "componentType" : 5126,
            "count" : 36,
            "max" : [
                0.19999998807907104,
                0,
                1.2000000476837158
            ],
            "min" : [
                -0.19999998807907104,
                0,
                -1.2000000476837158
            ],
            "type" : "VEC3"
        },
        {
            "bufferView" : 22,
            "componentType" : 5126,
            "count" : 36,
            "type" : "VEC3"
        },
        {
            "bufferView" : 23,
            "componentType" : 5126,
            "count" : 36,
            "type" : "VEC2"
        },
        {
            "bufferView" : 25,
            "componentType" : 5126,
            "count" : 216,
            "max" : [
                0.19999998807907104,
                0,
                1.2000000476837158
            ],
            "min" : [
                -0.19999998807907104,
                -0.0659831166267395,
                -1.2000000476837158
            ],
            "type" : "VEC3"
        },
        {
            "bufferView" : 26,
            "componentType" : 5126,
            "count" : 216,
            "type" : "VEC3"
        },
        {
            "bufferView" : 27,
            "componentType" : 5126,
            "count" : 216,
            "type" : "VEC2"
        },
        {
            "bufferView" : 28,
            "componentType" : 5123,
            "count" : 420,
            "type" : "SCALAR"
        },
        {
            "bufferView" : 29,
            "componentType" : 5126,
            "count" : 1077,
            "max" : [
                0.3906131386756897,
                2.2030670642852783,
                0.06640204787254333
            ],
            "min" : [
                -0.3906131386756897,
                -2.2030670642852783,
                -0.30000001192092896
            ],
            "type" : "VEC3"
        },
        {
            "bufferView" : 30,
            "componentType" : 5126,
            "count" : 1077,
            "type" : "VEC3"
        },
        {
            "bufferView" : 31,
            "componentType" : 5126,
            "count" : 1077,
            "type" : "VEC2"
        },
        {
            "bufferView" : 32,
            "componentType" : 5123,
            "count" : 4380,
            "type" : "SCALAR"
        },
        {
            "bufferView" : 33,
            "componentType" : 5126,
            "count" : 766,
            "max" : [
                0.3312089443206787,
                1.8997621536254883,
                0.30000001192092896
            ],
            "min" : [
                -0.3312089443206787,
                -1.8997621536254883,
                0.06640198081731796
            ],
            "type" : "VEC3"
        },
        {
            "bufferView" : 34,
            "componentType" : 5126,
            "count" : 766,
            "type" : "VEC3"
        },
        {
            "bufferView" : 35,
            "componentType" : 5126,
            "count" : 766,
            "type" : "VEC2"
        },
        {
            "bufferView" : 36,
            "componentType" : 5123,
            "count" : 3192,
            "type" : "SCALAR"
        }
    ],
    "bufferViews" : [
        {
            "buffer" : 0,
            "byteLength" : 1536,
            "byteOffset" : 0
        },
        {
            "buffer" : 0,
            "byteLength" : 1536,
            "byteOffset" : 1536
        },
        {
            "buffer" : 0,
            "byteLength" : 1024,
            "byteOffset" : 3072
        },
        {
            "buffer" : 0,
            "byteLength" : 768,
            "byteOffset" : 4096
        },
        {
            "buffer" : 0,
            "byteLength" : 384,
            "byteOffset" : 4864
        },
        {
            "buffer" : 0,
            "byteLength" : 384,
            "byteOffset" : 5248
        },
        {
            "buffer" : 0,
            "byteLength" : 256,
            "byteOffset" : 5632
        },
        {
            "buffer" : 0,
            "byteLength" : 180,
            "byteOffset" : 5888
        },
        {
            "buffer" : 0,
            "byteLength" : 768,
            "byteOffset" : 6068
        },
        {
            "buffer" : 0,
            "byteLength" : 768,
            "byteOffset" : 6836
        },
        {
            "buffer" : 0,
            "byteLength" : 512,
            "byteOffset" : 7604
        },
        {
            "buffer" : 0,
            "byteLength" : 384,
            "byteOffset" : 8116
        },
        {
            "buffer" : 0,
            "byteLength" : 432,
            "byteOffset" : 8500
        },
        {
            "buffer" : 0,
            "byteLength" : 432,
            "byteOffset" : 8932
        },
        {
            "buffer" : 0,
            "byteLength" : 288,
            "byteOffset" : 9364
        },
        {
            "buffer" : 0,
            "byteLength" : 204,
            "byteOffset" : 9652
        },
        {
            "buffer" : 0,
            "byteLength" : 75197,
            "byteOffset" : 9856
        },
        {
            "buffer" : 0,
            "byteLength" : 48,
            "byteOffset" : 85056
        },
        {
            "buffer" : 0,
            "byteLength" : 48,
            "byteOffset" : 85104
        },
        {
            "buffer" : 0,
            "byteLength" : 32,
            "byteOffset" : 85152
        },
        {
            "buffer" : 0,
            "byteLength" : 12,
            "byteOffset" : 85184
        },
        {
            "buffer" : 0,
            "byteLength" : 432,
            "byteOffset" : 85196
        },
        {
            "buffer" : 0,
            "byteLength" : 432,
            "byteOffset" : 85628
        },
        {
            "buffer" : 0,
            "byteLength" : 288,
            "byteOffset" : 86060
        },
        {
            "buffer" : 0,
            "byteLength" : 7213,
            "byteOffset" : 86348
        },
        {
            "buffer" : 0,
            "byteLength" : 2592,
            "byteOffset" : 93564
        },
        {
            "buffer" : 0,
            "byteLength" : 2592,
            "byteOffset" : 96156
        },
        {
            "buffer" : 0,
            "byteLength" : 1728,
            "byteOffset" : 98748
        },
        {
            "buffer" : 0,
            "byteLength" : 840,
            "byteOffset" : 100476
        },
        {
            "buffer" : 0,
            "byteLength" : 12924,
            "byteOffset" : 101316
        },
        {
            "buffer" : 0,
            "byteLength" : 12924,
            "byteOffset" : 114240
        },
        {
            "buffer" : 0,
            "byteLength" : 8616,
            "byteOffset" : 127164
        },
        {
            "buffer" : 0,
            "byteLength" : 8760,
            "byteOffset" : 135780
        },
        {
            "buffer" : 0,
            "byteLength" : 9192,
            "byteOffset" : 144540
        },
        {
            "buffer" : 0,
            "byteLength" : 9192,
            "byteOffset" : 153732
        },
        {
            "buffer" : 0,
            "byteLength" : 6128,
            "byteOffset" : 162924
        },
        {
            "buffer" : 0,
            "byteLength" : 6384,
            "byteOffset" : 169052
        }
    ],
    "buffers" : [
        {
            "byteLength" : 175436,
            "uri" : "data:application/octet-stream;base64,"
        }
    ]
}
