{
    "asset" : {
        "generator" : "Khronos glTF Blender I/O v1.3.48",
        "version" : "2.0"
    },
    "scene" : 0,
    "scenes" : [
        {
            "name" : "Scene",
            "nodes" : [
                0,
                1,
                2
            ]
        }
    ],
    "nodes" : [
        {
            "mesh" : 0,
            "name" : "front_base"
        },
        {
            "mesh" : 1,
            "name" : "apendice_front.009",
            "translation" : [
                0,
                1.606980800628662,
                0.06545744836330414
            ]
        },
        {
            "mesh" : 2,
            "name" : "apendice_front.014",
            "translation" : [
                0,
                1.606980800628662,
                0.06545744836330414
            ]
        }
    ],
    "materials" : [
        {
            "doubleSided" : true,
            "emissiveFactor" : [
                0,
                0,
                0
            ],
            "name" : "Material.001",
            "pbrMetallicRoughness" : {
                "baseColorFactor" : [
                    0.32637539505958557,
                    0.32637539505958557,
                    0.32637539505958557,
                    1
                ],
                "metallicFactor" : 0.3546099364757538,
                "roughnessFactor" : 0.28014183044433594
            }
        },
        {
            "doubleSided" : true,
            "emissiveFactor" : [
                0,
                0,
                0
            ],
            "name" : "Material.002",
            "pbrMetallicRoughness" : {
                "baseColorFactor" : [
                    0.03521784022450447,
                    0.03521784022450447,
                    0.03521784022450447,
                    1
                ],
                "metallicFactor" : 0,
                "roughnessFactor" : 0.6227272748947144
            }
        }
    ],
    "meshes" : [
        {
            "name" : "Cube.001",
            "primitives" : [
                {
                    "attributes" : {
                        "POSITION" : 0,
                        "NORMAL" : 1,
                        "TEXCOORD_0" : 2
                    },
                    "indices" : 3,
                    "material" : 0
                }
            ]
        },
        {
            "name" : "Cube.034",
            "primitives" : [
                {
                    "attributes" : {
                        "POSITION" : 4,
                        "NORMAL" : 5,
                        "TEXCOORD_0" : 6
                    },
                    "indices" : 7,
                    "material" : 1
                }
            ]
        },
        {
            "name" : "Cube.044",
            "primitives" : [
                {
                    "attributes" : {
                        "POSITION" : 8,
                        "NORMAL" : 9,
                        "TEXCOORD_0" : 10
                    },
                    "indices" : 11,
                    "material" : 1
                }
            ]
        }
    ],
    "accessors" : [
        {
            "bufferView" : 0,
            "componentType" : 5126,
            "count" : 179,
            "max" : [
                0.36000001430511475,
                1.63563072681427,
                0.125
            ],
            "min" : [
                -0.36000001430511475,
                -1.679999828338623,
                -0.125
            ],
            "type" : "VEC3"
        },
        {
            "bufferView" : 1,
            "componentType" : 5126,
            "count" : 179,
            "type" : "VEC3"
        },
        {
            "bufferView" : 2,
            "componentType" : 5126,
            "count" : 179,
            "type" : "VEC2"
        },
        {
            "bufferView" : 3,
            "componentType" : 5123,
            "count" : 516,
            "type" : "SCALAR"
        },
        {
            "bufferView" : 4,
            "componentType" : 5126,
            "count" : 249,
            "max" : [
                0.326431006193161,
                0.19886496663093567,
                0.23680523037910461
            ],
            "min" : [
                -0.32971006631851196,
                -1.4437034130096436,
                -0.18230466544628143
            ],
            "type" : "VEC3"
        },
        {
            "bufferView" : 5,
            "componentType" : 5126,
            "count" : 249,
            "type" : "VEC3"
        },
        {
            "bufferView" : 6,
            "componentType" : 5126,
            "count" : 249,
            "type" : "VEC2"
        },
        {
            "bufferView" : 7,
            "componentType" : 5123,
            "count" : 675,
            "type" : "SCALAR"
        },
        {
            "bufferView" : 8,
            "componentType" : 5126,
            "count" : 676,
            "max" : [
                -0.1369979977607727,
                -0.2247677594423294,
                0.23680523037910461
            ],
            "min" : [
                -0.32652807235717773,
                -0.7721652984619141,
                0.09960855543613434
            ],
            "type" : "VEC3"
        },
        {
            "bufferView" : 9,
            "componentType" : 5126,
            "count" : 676,
            "type" : "VEC3"
        },
        {
            "bufferView" : 10,
            "componentType" : 5126,
            "count" : 676,
            "type" : "VEC2"
        },
        {
            "bufferView" : 11,
            "componentType" : 5123,
            "count" : 1596,
            "type" : "SCALAR"
        }
    ],
    "bufferViews" : [
        {
            "buffer" : 0,
            "byteLength" : 2148,
            "byteOffset" : 0
        },
        {
            "buffer" : 0,
            "byteLength" : 2148,
            "byteOffset" : 2148
        },
        {
            "buffer" : 0,
            "byteLength" : 1432,
            "byteOffset" : 4296
        },
        {
            "buffer" : 0,
            "byteLength" : 1032,
            "byteOffset" : 5728
        },
        {
            "buffer" : 0,
            "byteLength" : 2988,
            "byteOffset" : 6760
        },
        {
            "buffer" : 0,
            "byteLength" : 2988,
            "byteOffset" : 9748
        },
        {
            "buffer" : 0,
            "byteLength" : 1992,
            "byteOffset" : 12736
        },
        {
            "buffer" : 0,
            "byteLength" : 1350,
            "byteOffset" : 14728
        },
        {
            "buffer" : 0,
            "byteLength" : 8112,
            "byteOffset" : 16080
        },
        {
            "buffer" : 0,
            "byteLength" : 8112,
            "byteOffset" : 24192
        },
        {
            "buffer" : 0,
            "byteLength" : 5408,
            "byteOffset" : 32304
        },
        {
            "buffer" : 0,
            "byteLength" : 3192,
            "byteOffset" : 37712
        }
    ],
    "buffers" : [
        {
            "byteLength" : 40904,
            "uri" : "data:application/octet-stream;base64,"
        }
    ]
}
