{
    "asset" : {
        "generator" : "Khronos glTF Blender I/O v1.3.48",
        "version" : "2.0"
    },
    "scene" : 0,
    "scenes" : [
        {
            "name" : "Scene",
            "nodes" : [
                0,
                1
            ]
        }
    ],
    "nodes" : [
        {
            "mesh" : 0,
            "name" : "front_base"
        },
        {
            "mesh" : 1,
            "name" : "front_base.008",
            "translation" : [
                0,
                1.606980800628662,
                0.06545744836330414
            ]
        }
    ],
    "materials" : [
        {
            "doubleSided" : true,
            "emissiveFactor" : [
                0,
                0,
                0
            ],
            "name" : "Material.001",
            "pbrMetallicRoughness" : {
                "baseColorFactor" : [
                    0.32637539505958557,
                    0.32637539505958557,
                    0.32637539505958557,
                    1
                ],
                "metallicFactor" : 0.3546099364757538,
                "roughnessFactor" : 0.28014183044433594
            }
        },
        {
            "doubleSided" : true,
            "emissiveFactor" : [
                0,
                0,
                0
            ],
            "name" : "Material.002",
            "pbrMetallicRoughness" : {
                "baseColorFactor" : [
                    0.03521784022450447,
                    0.03521784022450447,
                    0.03521784022450447,
                    1
                ],
                "metallicFactor" : 0,
                "roughnessFactor" : 0.6227272748947144
            }
        }
    ],
    "meshes" : [
        {
            "name" : "Cube.001",
            "primitives" : [
                {
                    "attributes" : {
                        "POSITION" : 0,
                        "NORMAL" : 1,
                        "TEXCOORD_0" : 2
                    },
                    "indices" : 3,
                    "material" : 0
                }
            ]
        },
        {
            "name" : "Cube.031",
            "primitives" : [
                {
                    "attributes" : {
                        "POSITION" : 4,
                        "NORMAL" : 5,
                        "TEXCOORD_0" : 6
                    },
                    "indices" : 7,
                    "material" : 1
                }
            ]
        }
    ],
    "accessors" : [
        {
            "bufferView" : 0,
            "componentType" : 5126,
            "count" : 179,
            "max" : [
                0.36000001430511475,
                1.63563072681427,
                0.125
            ],
            "min" : [
                -0.36000001430511475,
                -1.679999828338623,
                -0.125
            ],
            "type" : "VEC3"
        },
        {
            "bufferView" : 1,
            "componentType" : 5126,
            "count" : 179,
            "type" : "VEC3"
        },
        {
            "bufferView" : 2,
            "componentType" : 5126,
            "count" : 179,
            "type" : "VEC2"
        },
        {
            "bufferView" : 3,
            "componentType" : 5123,
            "count" : 516,
            "type" : "SCALAR"
        },
        {
            "bufferView" : 4,
            "componentType" : 5126,
            "count" : 366,
            "max" : [
                0.32970985770225525,
                0.19886496663093567,
                0.23680523037910461
            ],
            "min" : [
                -0.32971006631851196,
                -1.4437034130096436,
                -0.18230466544628143
            ],
            "type" : "VEC3"
        },
        {
            "bufferView" : 5,
            "componentType" : 5126,
            "count" : 366,
            "type" : "VEC3"
        },
        {
            "bufferView" : 6,
            "componentType" : 5126,
            "count" : 366,
            "type" : "VEC2"
        },
        {
            "bufferView" : 7,
            "componentType" : 5123,
            "count" : 1116,
            "type" : "SCALAR"
        }
    ],
    "bufferViews" : [
        {
            "buffer" : 0,
            "byteLength" : 2148,
            "byteOffset" : 0
        },
        {
            "buffer" : 0,
            "byteLength" : 2148,
            "byteOffset" : 2148
        },
        {
            "buffer" : 0,
            "byteLength" : 1432,
            "byteOffset" : 4296
        },
        {
            "buffer" : 0,
            "byteLength" : 1032,
            "byteOffset" : 5728
        },
        {
            "buffer" : 0,
            "byteLength" : 4392,
            "byteOffset" : 6760
        },
        {
            "buffer" : 0,
            "byteLength" : 4392,
            "byteOffset" : 11152
        },
        {
            "buffer" : 0,
            "byteLength" : 2928,
            "byteOffset" : 15544
        },
        {
            "buffer" : 0,
            "byteLength" : 2232,
            "byteOffset" : 18472
        }
    ],
    "buffers" : [
        {
            "byteLength" : 20704,
            "uri" : "data:application/octet-stream;base64,"
        }
    ]
}
