{
    "asset" : {
        "generator" : "Khronos glTF Blender I/O v1.3.48",
        "version" : "2.0"
    },
    "scene" : 0,
    "scenes" : [
        {
            "name" : "Scene",
            "nodes" : [
                0,
                1,
                2
            ]
        }
    ],
    "nodes" : [
        {
            "mesh" : 0,
            "name" : "front_base"
        },
        {
            "mesh" : 1,
            "name" : "apendice_front",
            "translation" : [
                0,
                0.7482833862304688,
                0.09481107443571091
            ]
        },
        {
            "mesh" : 2,
            "name" : "sensor_digital",
            "translation" : [
                0,
                0.7482833862304688,
                0.09481107443571091
            ]
        }
    ],
    "materials" : [
        {
            "doubleSided" : true,
            "emissiveFactor" : [
                0,
                0,
                0
            ],
            "name" : "Material.001",
            "pbrMetallicRoughness" : {
                "baseColorFactor" : [
                    0.32637539505958557,
                    0.32637539505958557,
                    0.32637539505958557,
                    1
                ],
                "metallicFactor" : 0.3546099364757538,
                "roughnessFactor" : 0.28014183044433594
            }
        },
        {
            "doubleSided" : true,
            "emissiveFactor" : [
                0,
                0,
                0
            ],
            "name" : "Material.002",
            "pbrMetallicRoughness" : {
                "baseColorFactor" : [
                    0.03521784022450447,
                    0.03521784022450447,
                    0.03521784022450447,
                    1
                ],
                "metallicFactor" : 0,
                "roughnessFactor" : 0.5
            }
        }
    ],
    "meshes" : [
        {
            "name" : "Cube.001",
            "primitives" : [
                {
                    "attributes" : {
                        "POSITION" : 0,
                        "NORMAL" : 1,
                        "TEXCOORD_0" : 2
                    },
                    "indices" : 3,
                    "material" : 0
                }
            ]
        },
        {
            "name" : "Cube.023",
            "primitives" : [
                {
                    "attributes" : {
                        "POSITION" : 4,
                        "NORMAL" : 5,
                        "TEXCOORD_0" : 6
                    },
                    "indices" : 7,
                    "material" : 1
                }
            ]
        },
        {
            "name" : "Cube.025",
            "primitives" : [
                {
                    "attributes" : {
                        "POSITION" : 8,
                        "NORMAL" : 9,
                        "TEXCOORD_0" : 10
                    },
                    "indices" : 11,
                    "material" : 0
                }
            ]
        }
    ],
    "accessors" : [
        {
            "bufferView" : 0,
            "componentType" : 5126,
            "count" : 302,
            "max" : [
                0.36000001430511475,
                1.63563072681427,
                0.125
            ],
            "min" : [
                -0.36000001430511475,
                -1.679999828338623,
                -0.125
            ],
            "type" : "VEC3"
        },
        {
            "bufferView" : 1,
            "componentType" : 5126,
            "count" : 302,
            "type" : "VEC3"
        },
        {
            "bufferView" : 2,
            "componentType" : 5126,
            "count" : 302,
            "type" : "VEC2"
        },
        {
            "bufferView" : 3,
            "componentType" : 5123,
            "count" : 516,
            "type" : "SCALAR"
        },
        {
            "bufferView" : 4,
            "componentType" : 5126,
            "count" : 1357,
            "max" : [
                0.3321836292743683,
                1.0890289545059204,
                0.2085094153881073
            ],
            "min" : [
                -0.3321836292743683,
                -0.580722987651825,
                -0.21704638004302979
            ],
            "type" : "VEC3"
        },
        {
            "bufferView" : 5,
            "componentType" : 5126,
            "count" : 1357,
            "type" : "VEC3"
        },
        {
            "bufferView" : 6,
            "componentType" : 5126,
            "count" : 1357,
            "type" : "VEC2"
        },
        {
            "bufferView" : 7,
            "componentType" : 5123,
            "count" : 6135,
            "type" : "SCALAR"
        },
        {
            "bufferView" : 8,
            "componentType" : 5126,
            "count" : 376,
            "max" : [
                0.06297007203102112,
                0.4718416929244995,
                0.07146021723747253
            ],
            "min" : [
                -0.0629701018333435,
                0.3516530990600586,
                0.045735862106084824
            ],
            "type" : "VEC3"
        },
        {
            "bufferView" : 9,
            "componentType" : 5126,
            "count" : 376,
            "type" : "VEC3"
        },
        {
            "bufferView" : 10,
            "componentType" : 5126,
            "count" : 376,
            "type" : "VEC2"
        },
        {
            "bufferView" : 11,
            "componentType" : 5123,
            "count" : 528,
            "type" : "SCALAR"
        }
    ],
    "bufferViews" : [
        {
            "buffer" : 0,
            "byteLength" : 3624,
            "byteOffset" : 0
        },
        {
            "buffer" : 0,
            "byteLength" : 3624,
            "byteOffset" : 3624
        },
        {
            "buffer" : 0,
            "byteLength" : 2416,
            "byteOffset" : 7248
        },
        {
            "buffer" : 0,
            "byteLength" : 1032,
            "byteOffset" : 9664
        },
        {
            "buffer" : 0,
            "byteLength" : 16284,
            "byteOffset" : 10696
        },
        {
            "buffer" : 0,
            "byteLength" : 16284,
            "byteOffset" : 26980
        },
        {
            "buffer" : 0,
            "byteLength" : 10856,
            "byteOffset" : 43264
        },
        {
            "buffer" : 0,
            "byteLength" : 12270,
            "byteOffset" : 54120
        },
        {
            "buffer" : 0,
            "byteLength" : 4512,
            "byteOffset" : 66392
        },
        {
            "buffer" : 0,
            "byteLength" : 4512,
            "byteOffset" : 70904
        },
        {
            "buffer" : 0,
            "byteLength" : 3008,
            "byteOffset" : 75416
        },
        {
            "buffer" : 0,
            "byteLength" : 1056,
            "byteOffset" : 78424
        }
    ],
    "buffers" : [
        {
            "byteLength" : 79480,
            "uri" : "data:application/octet-stream;base64,"
        }
    ]
}
