{
    "asset" : {
        "generator" : "Khronos glTF Blender I/O v1.3.48",
        "version" : "2.0"
    },
    "scene" : 0,
    "scenes" : [
        {
            "name" : "Scene",
            "nodes" : [
                0,
                1,
                2,
                3
            ]
        }
    ],
    "nodes" : [
        {
            "mesh" : 0,
            "name" : "front_corpo",
            "rotation" : [
                0.7071068286895752,
                0,
                0,
                0.7071068286895752
            ]
        },
        {
            "mesh" : 1,
            "name" : "macaneta_eixo",
            "rotation" : [
                0.7071068286895752,
                0,
                0,
                0.7071068286895752
            ],
            "scale" : [
                0.10999999940395355,
                0.1132955327630043,
                0.10999998450279236
            ],
            "translation" : [
                0,
                0.14856378734111786,
                0.1300000101327896
            ]
        },
        {
            "mesh" : 2,
            "name" : "macaneta_braco",
            "rotation" : [
                0.7071068286895752,
                0,
                0,
                0.7071068286895752
            ],
            "translation" : [
                0.5206962823867798,
                0.14856378734111786,
                0.578460693359375
            ]
        },
        {
            "mesh" : 3,
            "name" : "apendice_front",
            "rotation" : [
                0.7071068286895752,
                0,
                0,
                0.7071068286895752
            ],
            "translation" : [
                0,
                0.8691510558128357,
                0.12999999523162842
            ]
        }
    ],
    "materials" : [
        {
            "doubleSided" : true,
            "emissiveFactor" : [
                0,
                0,
                0
            ],
            "name" : "Material.002",
            "pbrMetallicRoughness" : {
                "baseColorFactor" : [
                    0.3263759911060333,
                    0.3263759911060333,
                    0.3263759911060333,
                    1
                ],
                "metallicFactor" : 0.8723404407501221,
                "roughnessFactor" : 0.5
            }
        },
        {
            "doubleSided" : true,
            "emissiveFactor" : [
                0,
                0,
                0
            ],
            "name" : "Material.001",
            "pbrMetallicRoughness" : {
                "baseColorFactor" : [
                    0.033102791756391525,
                    0.033102791756391525,
                    0.033102791756391525,
                    1
                ],
                "metallicFactor" : 0,
                "roughnessFactor" : 0.5
            }
        }
    ],
    "meshes" : [
        {
            "name" : "Plane",
            "primitives" : [
                {
                    "attributes" : {
                        "POSITION" : 0,
                        "NORMAL" : 1,
                        "TEXCOORD_0" : 2
                    },
                    "indices" : 3,
                    "material" : 0
                }
            ]
        },
        {
            "name" : "Circle",
            "primitives" : [
                {
                    "attributes" : {
                        "POSITION" : 4,
                        "NORMAL" : 5,
                        "TEXCOORD_0" : 6
                    },
                    "indices" : 7,
                    "material" : 0
                }
            ]
        },
        {
            "name" : "Circle.001",
            "primitives" : [
                {
                    "attributes" : {
                        "POSITION" : 8,
                        "NORMAL" : 9,
                        "TEXCOORD_0" : 10
                    },
                    "indices" : 11,
                    "material" : 0
                }
            ]
        },
        {
            "name" : "Plane.011",
            "primitives" : [
                {
                    "attributes" : {
                        "POSITION" : 12,
                        "NORMAL" : 13,
                        "TEXCOORD_0" : 14
                    },
                    "indices" : 15,
                    "material" : 1
                }
            ]
        }
    ],
    "accessors" : [
        {
            "bufferView" : 0,
            "componentType" : 5126,
            "count" : 144,
            "max" : [
                0.20000000298023224,
                0.12999999523162842,
                1.399999976158142
            ],
            "min" : [
                -0.20000000298023224,
                0,
                -1.399999976158142
            ],
            "type" : "VEC3"
        },
        {
            "bufferView" : 1,
            "componentType" : 5126,
            "count" : 144,
            "type" : "VEC3"
        },
        {
            "bufferView" : 2,
            "componentType" : 5126,
            "count" : 144,
            "type" : "VEC2"
        },
        {
            "bufferView" : 3,
            "componentType" : 5123,
            "count" : 420,
            "type" : "SCALAR"
        },
        {
            "bufferView" : 4,
            "componentType" : 5126,
            "count" : 96,
            "max" : [
                1,
                3.7641565799713135,
                1
            ],
            "min" : [
                -1,
                0,
                -1.000000238418579
            ],
            "type" : "VEC3"
        },
        {
            "bufferView" : 5,
            "componentType" : 5126,
            "count" : 96,
            "type" : "VEC3"
        },
        {
            "bufferView" : 6,
            "componentType" : 5126,
            "count" : 96,
            "type" : "VEC2"
        },
        {
            "bufferView" : 7,
            "componentType" : 5123,
            "count" : 384,
            "type" : "SCALAR"
        },
        {
            "bufferView" : 8,
            "componentType" : 5126,
            "count" : 665,
            "max" : [
                0.5654197931289673,
                0.031539320945739746,
                0.10999998450279236
            ],
            "min" : [
                -0.6306962966918945,
                -0.03153961896896362,
                -0.10999998450279236
            ],
            "type" : "VEC3"
        },
        {
            "bufferView" : 9,
            "componentType" : 5126,
            "count" : 665,
            "type" : "VEC3"
        },
        {
            "bufferView" : 10,
            "componentType" : 5126,
            "count" : 665,
            "type" : "VEC2"
        },
        {
            "bufferView" : 11,
            "componentType" : 5123,
            "count" : 3978,
            "type" : "SCALAR"
        },
        {
            "bufferView" : 12,
            "componentType" : 5126,
            "count" : 396,
            "max" : [
                0.15149375796318054,
                0.1766025573015213,
                0.44192424416542053
            ],
            "min" : [
                -0.15149375796318054,
                0,
                -0.44192424416542053
            ],
            "type" : "VEC3"
        },
        {
            "bufferView" : 13,
            "componentType" : 5126,
            "count" : 396,
            "type" : "VEC3"
        },
        {
            "bufferView" : 14,
            "componentType" : 5126,
            "count" : 396,
            "type" : "VEC2"
        },
        {
            "bufferView" : 15,
            "componentType" : 5123,
            "count" : 1488,
            "type" : "SCALAR"
        }
    ],
    "bufferViews" : [
        {
            "buffer" : 0,
            "byteLength" : 1728,
            "byteOffset" : 0
        },
        {
            "buffer" : 0,
            "byteLength" : 1728,
            "byteOffset" : 1728
        },
        {
            "buffer" : 0,
            "byteLength" : 1152,
            "byteOffset" : 3456
        },
        {
            "buffer" : 0,
            "byteLength" : 840,
            "byteOffset" : 4608
        },
        {
            "buffer" : 0,
            "byteLength" : 1152,
            "byteOffset" : 5448
        },
        {
            "buffer" : 0,
            "byteLength" : 1152,
            "byteOffset" : 6600
        },
        {
            "buffer" : 0,
            "byteLength" : 768,
            "byteOffset" : 7752
        },
        {
            "buffer" : 0,
            "byteLength" : 768,
            "byteOffset" : 8520
        },
        {
            "buffer" : 0,
            "byteLength" : 7980,
            "byteOffset" : 9288
        },
        {
            "buffer" : 0,
            "byteLength" : 7980,
            "byteOffset" : 17268
        },
        {
            "buffer" : 0,
            "byteLength" : 5320,
            "byteOffset" : 25248
        },
        {
            "buffer" : 0,
            "byteLength" : 7956,
            "byteOffset" : 30568
        },
        {
            "buffer" : 0,
            "byteLength" : 4752,
            "byteOffset" : 38524
        },
        {
            "buffer" : 0,
            "byteLength" : 4752,
            "byteOffset" : 43276
        },
        {
            "buffer" : 0,
            "byteLength" : 3168,
            "byteOffset" : 48028
        },
        {
            "buffer" : 0,
            "byteLength" : 2976,
            "byteOffset" : 51196
        }
    ],
    "buffers" : [
        {
            "byteLength" : 54172,
            "uri" : "data:application/octet-stream;base64,"
        }
    ]
}
