{
    "asset" : {
        "generator" : "Khronos glTF Blender I/O v1.3.48",
        "version" : "2.0"
    },
    "scene" : 0,
    "scenes" : [
        {
            "name" : "Scene",
            "nodes" : [
                4,
                9
            ]
        }
    ],
    "nodes" : [
        {
            "mesh" : 0,
            "name" : "bolinha_back",
            "translation" : [
                0,
                0.39605703949928284,
                2.4350039958953857
            ]
        },
        {
            "mesh" : 1,
            "name" : "macaneta_alavanca.001",
            "translation" : [
                0.9185294508934021,
                0.47568655014038086,
                0
            ]
        },
        {
            "children" : [
                1
            ],
            "mesh" : 2,
            "name" : "macaneta_eixo.001",
            "rotation" : [
                0,
                1,
                0,
                7.509729735852635e-14
            ],
            "translation" : [
                0,
                0.8197299242019653,
                2.4350037574768066
            ]
        },
        {
            "mesh" : 3,
            "name" : "tampa_pilha",
            "translation" : [
                0,
                0.39605700969696045,
                2.002167224884033
            ]
        },
        {
            "children" : [
                0,
                2,
                3
            ],
            "mesh" : 4,
            "name" : "back_panel",
            "rotation" : [
                0,
                0.7071068286895752,
                -0.7071068286895752,
                -1.1520234011186403e-07
            ],
            "translation" : [
                0,
                2.0029447078704834,
                -0.20000000298023224
            ]
        },
        {
            "mesh" : 5,
            "name" : "macaneta_alavanca",
            "translation" : [
                0.9185295701026917,
                0.6326054930686951,
                0
            ]
        },
        {
            "children" : [
                5
            ],
            "mesh" : 6,
            "name" : "macaneta_eixo",
            "translation" : [
                0,
                0.26545172929763794,
                0
            ]
        },
        {
            "children" : [
                6
            ],
            "mesh" : 7,
            "name" : "bolinha_front",
            "translation" : [
                0,
                0.3959568738937378,
                0.43205928802490234
            ]
        },
        {
            "mesh" : 8,
            "name" : "tecl_numerico",
            "translation" : [
                -1.100000262260437,
                -0.5897780656814575,
                0
            ]
        },
        {
            "children" : [
                7,
                8
            ],
            "mesh" : 9,
            "name" : "front_panel.002",
            "rotation" : [
                0.7071068286895752,
                0,
                0,
                0.7071068286895752
            ],
            "translation" : [
                0,
                0,
                0.20000000298023224
            ]
        }
    ],
    "materials" : [
        {
            "doubleSided" : true,
            "emissiveFactor" : [
                0,
                0,
                0
            ],
            "name" : "cinza_corpo.002",
            "pbrMetallicRoughness" : {
                "baseColorFactor" : [
                    0.5966759324073792,
                    0.5966759324073792,
                    0.5966759324073792,
                    1
                ],
                "metallicFactor" : 0.8949999809265137,
                "roughnessFactor" : 0.10000000149011612
            }
        },
        {
            "doubleSided" : true,
            "emissiveFactor" : [
                0,
                0,
                0
            ],
            "name" : "cinza_corpo",
            "pbrMetallicRoughness" : {
                "baseColorFactor" : [
                    0.2597986161708832,
                    0.2597986161708832,
                    0.2597986161708832,
                    1
                ],
                "metallicFactor" : 0.652482271194458,
                "roughnessFactor" : 0.322451651096344
            }
        },
        {
            "doubleSided" : true,
            "emissiveFactor" : [
                0,
                0,
                0
            ],
            "name" : "preto_plastico",
            "pbrMetallicRoughness" : {
                "baseColorFactor" : [
                    0.011492704972624779,
                    0.011492704972624779,
                    0.011492704972624779,
                    1
                ],
                "metallicFactor" : 0.5227272510528564,
                "roughnessFactor" : 0.5
            }
        },
        {
            "alphaMode" : "BLEND",
            "doubleSided" : true,
            "emissiveFactor" : [
                0,
                0,
                0
            ],
            "name" : "teclado_numerico",
            "pbrMetallicRoughness" : {
                "baseColorTexture" : {
                    "index" : 0,
                    "texCoord" : 0
                },
                "metallicFactor" : 0,
                "roughnessFactor" : 0.5
            }
        },
        {
            "doubleSided" : true,
            "emissiveFactor" : [
                0,
                0,
                0
            ],
            "name" : "preto_vidro",
            "pbrMetallicRoughness" : {
                "baseColorFactor" : [
                    0,
                    0,
                    0,
                    1
                ],
                "metallicFactor" : 0.3136363625526428,
                "roughnessFactor" : 0.10909092426300049
            }
        }
    ],
    "meshes" : [
        {
            "name" : "Circle.002",
            "primitives" : [
                {
                    "attributes" : {
                        "POSITION" : 0,
                        "NORMAL" : 1,
                        "TEXCOORD_0" : 2
                    },
                    "indices" : 3,
                    "material" : 0
                }
            ]
        },
        {
            "name" : "Cylinder.003",
            "primitives" : [
                {
                    "attributes" : {
                        "POSITION" : 4,
                        "NORMAL" : 5
                    },
                    "indices" : 6,
                    "material" : 1
                }
            ]
        },
        {
            "name" : "Cylinder.004",
            "primitives" : [
                {
                    "attributes" : {
                        "POSITION" : 7,
                        "NORMAL" : 8,
                        "TEXCOORD_0" : 9
                    },
                    "indices" : 10,
                    "material" : 1
                }
            ]
        },
        {
            "name" : "Plane.009",
            "primitives" : [
                {
                    "attributes" : {
                        "POSITION" : 11,
                        "NORMAL" : 12,
                        "TEXCOORD_0" : 13
                    },
                    "indices" : 14,
                    "material" : 2
                }
            ]
        },
        {
            "name" : "Plane.008",
            "primitives" : [
                {
                    "attributes" : {
                        "POSITION" : 15,
                        "NORMAL" : 16,
                        "TEXCOORD_0" : 17
                    },
                    "indices" : 18,
                    "material" : 1
                }
            ]
        },
        {
            "name" : "Cylinder.006",
            "primitives" : [
                {
                    "attributes" : {
                        "POSITION" : 19,
                        "NORMAL" : 20
                    },
                    "indices" : 6,
                    "material" : 1
                }
            ]
        },
        {
            "name" : "Cylinder.005",
            "primitives" : [
                {
                    "attributes" : {
                        "POSITION" : 21,
                        "NORMAL" : 22,
                        "TEXCOORD_0" : 23
                    },
                    "indices" : 24,
                    "material" : 1
                }
            ]
        },
        {
            "name" : "Circle",
            "primitives" : [
                {
                    "attributes" : {
                        "POSITION" : 25,
                        "NORMAL" : 26,
                        "TEXCOORD_0" : 27
                    },
                    "indices" : 3,
                    "material" : 0
                }
            ]
        },
        {
            "name" : "Plane.007",
            "primitives" : [
                {
                    "attributes" : {
                        "POSITION" : 28,
                        "NORMAL" : 29,
                        "TEXCOORD_0" : 30
                    },
                    "indices" : 31,
                    "material" : 3
                }
            ]
        },
        {
            "name" : "Plane.005",
            "primitives" : [
                {
                    "attributes" : {
                        "POSITION" : 32,
                        "NORMAL" : 33,
                        "TEXCOORD_0" : 34
                    },
                    "indices" : 35,
                    "material" : 1
                },
                {
                    "attributes" : {
                        "POSITION" : 36,
                        "NORMAL" : 37,
                        "TEXCOORD_0" : 38
                    },
                    "indices" : 39,
                    "material" : 4
                }
            ]
        }
    ],
    "textures" : [
        {
            "source" : 0
        }
    ],
    "images" : [
        {
            "bufferView" : 32,
            "mimeType" : "image/png",
            "name" : "teclado_numerico_azul_alpha_2"
        }
    ],
    "accessors" : [
        {
            "bufferView" : 0,
            "componentType" : 5126,
            "count" : 320,
            "max" : [
                0.29766708612442017,
                0.05813879519701004,
                0.29766708612442017
            ],
            "min" : [
                -0.29766708612442017,
                0,
                -0.29766708612442017
            ],
            "type" : "VEC3"
        },
        {
            "bufferView" : 1,
            "componentType" : 5126,
            "count" : 320,
            "type" : "VEC3"
        },
        {
            "bufferView" : 2,
            "componentType" : 5126,
            "count" : 320,
            "type" : "VEC2"
        },
        {
            "bufferView" : 3,
            "componentType" : 5123,
            "count" : 1716,
            "type" : "SCALAR"
        },
        {
            "bufferView" : 4,
            "componentType" : 5126,
            "count" : 400,
            "max" : [
                1.1271439790725708,
                0.08300285041332245,
                0.20861458778381348
            ],
            "min" : [
                -1.1271439790725708,
                -0.08300285786390305,
                -0.20861466228961945
            ],
            "type" : "VEC3"
        },
        {
            "bufferView" : 5,
            "componentType" : 5126,
            "count" : 400,
            "type" : "VEC3"
        },
        {
            "bufferView" : 6,
            "componentType" : 5123,
            "count" : 2388,
            "type" : "SCALAR"
        },
        {
            "bufferView" : 7,
            "componentType" : 5126,
            "count" : 185,
            "max" : [
                0.20861460268497467,
                0.46069011092185974,
                0.20861464738845825
            ],
            "min" : [
                -0.20861466228961945,
                -0.36553362011909485,
                -0.20861466228961945
            ],
            "type" : "VEC3"
        },
        {
            "bufferView" : 8,
            "componentType" : 5126,
            "count" : 185,
            "type" : "VEC3"
        },
        {
            "bufferView" : 9,
            "componentType" : 5126,
            "count" : 185,
            "type" : "VEC2"
        },
        {
            "bufferView" : 10,
            "componentType" : 5123,
            "count" : 756,
            "type" : "SCALAR"
        },
        {
            "bufferView" : 11,
            "componentType" : 5126,
            "count" : 297,
            "max" : [
                0.5488440990447998,
                0.011036213487386703,
                -0.299222469329834
            ],
            "min" : [
                -0.5488440990447998,
                -0.18812502920627594,
                -2.1349411010742188
            ],
            "type" : "VEC3"
        },
        {
            "bufferView" : 12,
            "componentType" : 5126,
            "count" : 297,
            "type" : "VEC3"
        },
        {
            "bufferView" : 13,
            "componentType" : 5126,
            "count" : 297,
            "type" : "VEC2"
        },
        {
            "bufferView" : 14,
            "componentType" : 5123,
            "count" : 1338,
            "type" : "SCALAR"
        },
        {
            "bufferView" : 15,
            "componentType" : 5126,
            "count" : 1798,
            "max" : [
                0.5488441586494446,
                0.40705716609954834,
                4.137886047363281
            ],
            "min" : [
                -0.548844039440155,
                1.1920928955078125e-07,
                -0.13199639320373535
            ],
            "type" : "VEC3"
        },
        {
            "bufferView" : 16,
            "componentType" : 5126,
            "count" : 1798,
            "type" : "VEC3"
        },
        {
            "bufferView" : 17,
            "componentType" : 5126,
            "count" : 1798,
            "type" : "VEC2"
        },
        {
            "bufferView" : 18,
            "componentType" : 5123,
            "count" : 6702,
            "type" : "SCALAR"
        },
        {
            "bufferView" : 19,
            "componentType" : 5126,
            "count" : 400,
            "max" : [
                1.1271439790725708,
                0.08300285041332245,
                0.20861458778381348
            ],
            "min" : [
                -1.1271439790725708,
                -0.08300285786390305,
                -0.20861466228961945
            ],
            "type" : "VEC3"
        },
        {
            "bufferView" : 20,
            "componentType" : 5126,
            "count" : 400,
            "type" : "VEC3"
        },
        {
            "bufferView" : 21,
            "componentType" : 5126,
            "count" : 189,
            "max" : [
                0.20861463248729706,
                0.6176014542579651,
                0.20861463248729706
            ],
            "min" : [
                -0.20861463248729706,
                -0.20861463248729706,
                -0.20861466228961945
            ],
            "type" : "VEC3"
        },
        {
            "bufferView" : 22,
            "componentType" : 5126,
            "count" : 189,
            "type" : "VEC3"
        },
        {
            "bufferView" : 23,
            "componentType" : 5126,
            "count" : 189,
            "type" : "VEC2"
        },
        {
            "bufferView" : 24,
            "componentType" : 5123,
            "count" : 756,
            "type" : "SCALAR"
        },
        {
            "bufferView" : 25,
            "componentType" : 5126,
            "count" : 320,
            "max" : [
                0.29766708612442017,
                0.05813870579004288,
                0.29766708612442017
            ],
            "min" : [
                -0.29766708612442017,
                0,
                -0.29766708612442017
            ],
            "type" : "VEC3"
        },
        {
            "bufferView" : 26,
            "componentType" : 5126,
            "count" : 320,
            "type" : "VEC3"
        },
        {
            "bufferView" : 27,
            "componentType" : 5126,
            "count" : 320,
            "type" : "VEC2"
        },
        {
            "bufferView" : 28,
            "componentType" : 5126,
            "count" : 4,
            "max" : [
                1.5610039234161377,
                1.003593921661377,
                -0.4576539397239685
            ],
            "min" : [
                0.6610038876533508,
                1.003593921661377,
                -1.6576539278030396
            ],
            "type" : "VEC3"
        },
        {
            "bufferView" : 29,
            "componentType" : 5126,
            "count" : 4,
            "type" : "VEC3"
        },
        {
            "bufferView" : 30,
            "componentType" : 5126,
            "count" : 4,
            "type" : "VEC2"
        },
        {
            "bufferView" : 31,
            "componentType" : 5123,
            "count" : 6,
            "type" : "SCALAR"
        },
        {
            "bufferView" : 33,
            "componentType" : 5126,
            "count" : 847,
            "max" : [
                0.5488440990447998,
                0.41309332847595215,
                2.1349411010742188
            ],
            "min" : [
                -0.5488440990447998,
                -2.9802322387695312e-08,
                -2.1349411010742188
            ],
            "type" : "VEC3"
        },
        {
            "bufferView" : 34,
            "componentType" : 5126,
            "count" : 847,
            "type" : "VEC3"
        },
        {
            "bufferView" : 35,
            "componentType" : 5126,
            "count" : 847,
            "type" : "VEC2"
        },
        {
            "bufferView" : 36,
            "componentType" : 5123,
            "count" : 3990,
            "type" : "SCALAR"
        },
        {
            "bufferView" : 37,
            "componentType" : 5126,
            "count" : 36,
            "max" : [
                0.5226813554763794,
                0.41309332847595215,
                2.108778238296509
            ],
            "min" : [
                -0.5226813554763794,
                0.41309332847595215,
                -2.108778238296509
            ],
            "type" : "VEC3"
        },
        {
            "bufferView" : 38,
            "componentType" : 5126,
            "count" : 36,
            "type" : "VEC3"
        },
        {
            "bufferView" : 39,
            "componentType" : 5126,
            "count" : 36,
            "type" : "VEC2"
        },
        {
            "bufferView" : 40,
            "componentType" : 5123,
            "count" : 102,
            "type" : "SCALAR"
        }
    ],
    "bufferViews" : [
        {
            "buffer" : 0,
            "byteLength" : 3840,
            "byteOffset" : 0
        },
        {
            "buffer" : 0,
            "byteLength" : 3840,
            "byteOffset" : 3840
        },
        {
            "buffer" : 0,
            "byteLength" : 2560,
            "byteOffset" : 7680
        },
        {
            "buffer" : 0,
            "byteLength" : 3432,
            "byteOffset" : 10240
        },
        {
            "buffer" : 0,
            "byteLength" : 4800,
            "byteOffset" : 13672
        },
        {
            "buffer" : 0,
            "byteLength" : 4800,
            "byteOffset" : 18472
        },
        {
            "buffer" : 0,
            "byteLength" : 4776,
            "byteOffset" : 23272
        },
        {
            "buffer" : 0,
            "byteLength" : 2220,
            "byteOffset" : 28048
        },
        {
            "buffer" : 0,
            "byteLength" : 2220,
            "byteOffset" : 30268
        },
        {
            "buffer" : 0,
            "byteLength" : 1480,
            "byteOffset" : 32488
        },
        {
            "buffer" : 0,
            "byteLength" : 1512,
            "byteOffset" : 33968
        },
        {
            "buffer" : 0,
            "byteLength" : 3564,
            "byteOffset" : 35480
        },
        {
            "buffer" : 0,
            "byteLength" : 3564,
            "byteOffset" : 39044
        },
        {
            "buffer" : 0,
            "byteLength" : 2376,
            "byteOffset" : 42608
        },
        {
            "buffer" : 0,
            "byteLength" : 2676,
            "byteOffset" : 44984
        },
        {
            "buffer" : 0,
            "byteLength" : 21576,
            "byteOffset" : 47660
        },
        {
            "buffer" : 0,
            "byteLength" : 21576,
            "byteOffset" : 69236
        },
        {
            "buffer" : 0,
            "byteLength" : 14384,
            "byteOffset" : 90812
        },
        {
            "buffer" : 0,
            "byteLength" : 13404,
            "byteOffset" : 105196
        },
        {
            "buffer" : 0,
            "byteLength" : 4800,
            "byteOffset" : 118600
        },
        {
            "buffer" : 0,
            "byteLength" : 4800,
            "byteOffset" : 123400
        },
        {
            "buffer" : 0,
            "byteLength" : 2268,
            "byteOffset" : 128200
        },
        {
            "buffer" : 0,
            "byteLength" : 2268,
            "byteOffset" : 130468
        },
        {
            "buffer" : 0,
            "byteLength" : 1512,
            "byteOffset" : 132736
        },
        {
            "buffer" : 0,
            "byteLength" : 1512,
            "byteOffset" : 134248
        },
        {
            "buffer" : 0,
            "byteLength" : 3840,
            "byteOffset" : 135760
        },
        {
            "buffer" : 0,
            "byteLength" : 3840,
            "byteOffset" : 139600
        },
        {
            "buffer" : 0,
            "byteLength" : 2560,
            "byteOffset" : 143440
        },
        {
            "buffer" : 0,
            "byteLength" : 48,
            "byteOffset" : 146000
        },
        {
            "buffer" : 0,
            "byteLength" : 48,
            "byteOffset" : 146048
        },
        {
            "buffer" : 0,
            "byteLength" : 32,
            "byteOffset" : 146096
        },
        {
            "buffer" : 0,
            "byteLength" : 12,
            "byteOffset" : 146128
        },
        {
            "buffer" : 0,
            "byteLength" : 1178909,
            "byteOffset" : 146140
        },
        {
            "buffer" : 0,
            "byteLength" : 10164,
            "byteOffset" : 1325052
        },
        {
            "buffer" : 0,
            "byteLength" : 10164,
            "byteOffset" : 1335216
        },
        {
            "buffer" : 0,
            "byteLength" : 6776,
            "byteOffset" : 1345380
        },
        {
            "buffer" : 0,
            "byteLength" : 7980,
            "byteOffset" : 1352156
        },
        {
            "buffer" : 0,
            "byteLength" : 432,
            "byteOffset" : 1360136
        },
        {
            "buffer" : 0,
            "byteLength" : 432,
            "byteOffset" : 1360568
        },
        {
            "buffer" : 0,
            "byteLength" : 288,
            "byteOffset" : 1361000
        },
        {
            "buffer" : 0,
            "byteLength" : 204,
            "byteOffset" : 1361288
        }
    ],
    "buffers" : [
        {
            "byteLength" : 1361492,
            "uri" : "data:application/octet-stream;base64,"
        }
    ]
}
